<!DOCTYPE svg PUBLIC "-//W3C//DTD SVG 1.1//EN" "http://www.w3.org/Graphics/SVG/1.1/DTD/svg11.dtd">
<!-- Uploaded to: SVG Repo, www.svgrepo.com, Transformed by: SVG Repo Mixer Tools -->
<svg width="64px" height="64px" viewBox="-102.4 -102.4 1228.80 1228.80" class="icon" version="1.1" xmlns="http://www.w3.org/2000/svg" fill="#000000">

<g id="SVGRepo_bgCarrier" stroke-width="0"/>

<g id="SVGRepo_tracerCarrier" stroke-linecap="round" stroke-linejoin="round"/>

<g id="SVGRepo_iconCarrier">

<path d="M33.956002 93.849026l326.194325 0 0 800.892063-326.194325 0 0-800.892063Z" fill="#daaaab"/>

<path d="M231.051786 1024A216.179916 216.179916 0 0 1 15.032241 807.980455V239.786506a216.019545 216.019545 0 0 1 432.039091 0v568.033578a216.179916 216.179916 0 0 1-216.019546 216.179916z m0-962.225146a178.172023 178.172023 0 0 0-178.011652 178.011652v568.033578a178.011652 178.011652 0 1 0 356.023304 0V239.786506a178.172023 178.172023 0 0 0-178.011652-178.011652z" fill="#800080"/>

<path d="M231.051786 523.963666H33.956002v284.016789a196.935413 196.935413 0 0 0 171.276076 195.171334 55.969429 55.969429 0 0 1 25.659338-105.684396 129.258911 129.258911 0 0 0 129.258911-129.258911V523.963666h-129.258911z" fill="#800080"/>

<path d="M392.821848 45.966675l322.940098-45.961182 112.846679 792.902089-322.940098 45.961182-112.846679-792.902089Z" fill="#daaaab"/>

<path d="M906.533839 213.164944l77.298753 562.90171a216.019545 216.019545 0 0 1-428.029819 58.695734l-77.298753-562.90171a216.019545 216.019545 0 1 1 428.029819-58.695734z m39.611601 568.033578l-77.298753-562.901711a178.043726 178.043726 0 1 0-352.815887 48.111258l77.298754 562.90171a178.011652 178.011652 0 1 0 352.815886-47.630145z" fill="#800080"/>

<path d="M731.248491 523.963666l-128.296686 17.640794-67.195389 9.141139-38.328635-282.252709a196.935413 196.935413 0 0 1 143.211176-216.661029 55.969429 55.969429 0 0 0 39.771972 101.194011 129.258911 129.258911 0 0 1 145.616739 110.495521l33.196768 241.999624z" fill="#800080"/>

</g>

</svg>